<svg width="143" height="18" viewBox="0 0 143 18" fill="none" xmlns="http://www.w3.org/2000/svg">
<g clip-path="url(#clip0_14_21)">
<path d="M12.8766 11.1894C12.0195 11.1894 11.1779 11.0553 10.3804 10.7918C9.98958 10.6585 9.50917 10.7808 9.27066 11.0257L7.6965 12.2141C5.87092 11.2396 4.7464 10.1154 3.78521 8.30354L4.93857 6.77039C5.23822 6.47114 5.3457 6.03401 5.21693 5.62385C4.95224 4.82213 4.81779 3.98093 4.81779 3.12343C4.81782 2.50396 4.31386 2 3.69443 2H1.12339C0.503964 2 0 2.50396 0 3.12339C0 10.2237 5.77638 16 12.8766 16C13.4961 16 14 15.496 14 14.8766V12.3128C14 11.6934 13.496 11.1894 12.8766 11.1894Z" fill="white"/>
</g>
<path d="M19.6665 10.46H22.9215V14H24.4665V10.46H27.7065V8.975H24.4665V5.42H22.9215V8.975H19.6665V10.46ZM29.2956 14H31.3056L35.9706 4.7V3.35H28.6506V5.015H33.1956C33.7356 5.015 33.9006 4.985 33.9006 4.985V5.015C33.9006 5.015 33.6306 5.33 33.2856 5.99L29.2956 14ZM40.4837 11.255H45.4637V14H47.3687V11.255H48.7487V9.65H47.3687V3.35H45.0887L40.4837 10.07V11.255ZM42.5237 9.65V9.62L44.9837 6.215C45.2687 5.81 45.5087 5.24 45.5087 5.24H45.5387C45.5387 5.24 45.4637 5.825 45.4637 6.35V9.65H42.5237ZM50.5358 14H52.5458L57.2108 4.7V3.35H49.8908V5.015H54.4358C54.9758 5.015 55.1408 4.985 55.1408 4.985V5.015C55.1408 5.015 54.8708 5.33 54.5258 5.99L50.5358 14ZM57.4612 11.255H62.4412V14H64.3462V11.255H65.7262V9.65H64.3462V3.35H62.0662L57.4612 10.07V11.255ZM59.5012 9.65V9.62L61.9612 6.215C62.2462 5.81 62.4862 5.24 62.4862 5.24H62.5162C62.5162 5.24 62.4412 5.825 62.4412 6.35V9.65H59.5012ZM67.1683 14H74.2333V12.335H69.2083C69.2983 10.325 74.0683 9.74 74.0683 6.32C74.0683 4.31 72.4633 3.17 70.6033 3.17C68.8933 3.17 67.6933 4.16 67.0783 5.3L68.5183 6.26C68.9083 5.57 69.6283 5 70.4383 5C71.3383 5 72.0583 5.555 72.0583 6.485C72.0583 8.6 67.0783 9.215 67.0783 13.055C67.0783 13.355 67.1083 13.655 67.1683 14ZM79.9785 13.73C80.6535 14.06 81.4335 14.18 82.1535 14.18C85.4535 14.18 87.0585 11.015 87.0585 8.225C87.0585 5.015 85.1685 3.17 82.9485 3.17C80.8335 3.17 79.4385 4.775 79.4385 6.74C79.4385 8.66 80.7585 10.31 82.8585 10.31C83.6235 10.31 84.4935 9.995 84.8535 9.56H84.8835C84.6135 11.015 83.7285 12.41 82.0485 12.41C81.4935 12.41 80.9235 12.245 80.5485 12.065L79.9785 13.73ZM83.3085 8.72C82.0335 8.72 81.3585 7.82 81.3585 6.74C81.3585 5.735 81.9585 4.955 82.9635 4.955C84.0735 4.955 85.0635 6.23 85.0635 7.565C85.0635 8.21 84.2685 8.72 83.3085 8.72ZM92.5562 14.18C95.4662 14.18 96.4112 11.72 96.4112 8.66C96.4112 5.6 95.4662 3.17 92.5562 3.17C89.6462 3.17 88.6862 5.6 88.6862 8.66C88.6862 11.72 89.6462 14.18 92.5562 14.18ZM92.5562 12.41C91.1012 12.41 90.6812 10.76 90.6812 8.66C90.6812 6.59 91.1012 4.955 92.5562 4.955C94.0112 4.955 94.4312 6.59 94.4312 8.66C94.4312 10.76 94.0112 12.41 92.5562 12.41ZM102.2 13.73C102.875 14.06 103.655 14.18 104.375 14.18C107.675 14.18 109.28 11.015 109.28 8.225C109.28 5.015 107.39 3.17 105.17 3.17C103.055 3.17 101.66 4.775 101.66 6.74C101.66 8.66 102.98 10.31 105.08 10.31C105.845 10.31 106.715 9.995 107.075 9.56H107.105C106.835 11.015 105.95 12.41 104.27 12.41C103.715 12.41 103.145 12.245 102.77 12.065L102.2 13.73ZM105.53 8.72C104.255 8.72 103.58 7.82 103.58 6.74C103.58 5.735 104.18 4.955 105.185 4.955C106.295 4.955 107.285 6.23 107.285 7.565C107.285 8.21 106.49 8.72 105.53 8.72ZM114.778 14.18C117.688 14.18 118.633 11.72 118.633 8.66C118.633 5.6 117.688 3.17 114.778 3.17C111.868 3.17 110.908 5.6 110.908 8.66C110.908 11.72 111.868 14.18 114.778 14.18ZM114.778 12.41C113.323 12.41 112.903 10.76 112.903 8.66C112.903 6.59 113.323 4.955 114.778 4.955C116.233 4.955 116.653 6.59 116.653 8.66C116.653 10.76 116.233 12.41 114.778 12.41ZM124.422 13.73C125.097 14.06 125.877 14.18 126.597 14.18C129.897 14.18 131.502 11.015 131.502 8.225C131.502 5.015 129.612 3.17 127.392 3.17C125.277 3.17 123.882 4.775 123.882 6.74C123.882 8.66 125.202 10.31 127.302 10.31C128.067 10.31 128.937 9.995 129.297 9.56H129.327C129.057 11.015 128.172 12.41 126.492 12.41C125.937 12.41 125.367 12.245 124.992 12.065L124.422 13.73ZM127.752 8.72C126.477 8.72 125.802 7.82 125.802 6.74C125.802 5.735 126.402 4.955 127.407 4.955C128.517 4.955 129.507 6.23 129.507 7.565C129.507 8.21 128.712 8.72 127.752 8.72ZM137 14.18C139.91 14.18 140.855 11.72 140.855 8.66C140.855 5.6 139.91 3.17 137 3.17C134.09 3.17 133.13 5.6 133.13 8.66C133.13 11.72 134.09 14.18 137 14.18ZM137 12.41C135.545 12.41 135.125 10.76 135.125 8.66C135.125 6.59 135.545 4.955 137 4.955C138.455 4.955 138.875 6.59 138.875 8.66C138.875 10.76 138.455 12.41 137 12.41Z" fill="white"/>
<defs>
<clipPath id="clip0_14_21">
<rect width="14" height="14" fill="white" transform="translate(0 2)"/>
</clipPath>
</defs>
</svg>
